Coordinates
version=1
nRows=37
nColumns=38
inDegrees=no

Units are S.I. units (second, meters, Newtons, ...)
If the header above contains a line with 'inDegrees', this indicates whether rotational values are in degrees (yes) or radians (no).

endheader
time	pelvis_tilt	pelvis_list	pelvis_rotation	pelvis_tx	pelvis_ty	pelvis_tz	hip_flexion_r	hip_adduction_r	hip_rotation_r	knee_angle_r	ankle_angle_r	subtalar_angle_r	mtp_angle_r	hip_flexion_l	hip_adduction_l	hip_rotation_l	knee_angle_l	ankle_angle_l	subtalar_angle_l	mtp_angle_l	lumbar_extension	lumbar_bending	lumbar_rotation	arm_flex_r	arm_add_r	arm_rot_r	elbow_flex_r	pro_sup_r	wrist_flex_r	wrist_dev_r	arm_flex_l	arm_add_l	arm_rot_l	elbow_flex_l	pro_sup_l	wrist_flex_l	wrist_dev_l
0.56	0.724578	1.49488	-2.30708	0.96593	0.695076	0.958111	0.388142	-0.137059	-0.00831066	1.29591	-0.0900251	0	0	0.172323	0.126013	-0.15892	0.424857	0.201538	0	0	-0.0696255	-0.12616	-0.080097	-0.100707	-0.0896834	-0.140705	0.210317	1.28047	0	0	-0.298089	-0.553212	0.622729	0.760978	0.523107	0	0
0.57	0.655403	1.49488	-2.22612	0.967612	0.684942	0.96003	0.400605	-0.137147	-0.0201333	1.27077	-0.0758771	0	0	0.146555	0.124838	-0.150889	0.407062	0.204529	0	0	-0.0763867	-0.120165	-0.091275	-0.0977638	-0.0908453	-0.136256	0.211348	1.27447	0	0	-0.290722	-0.55477	0.620555	0.76496	0.52924	0	0
0.58	0.597633	1.49459	-2.15641	0.96929	0.67497	0.96165	0.412702	-0.139305	-0.0332657	1.24298	-0.0609368	0	0	0.122336	0.124087	-0.141897	0.39054	0.207368	0	0	-0.082685	-0.114618	-0.102504	-0.0951963	-0.0920849	-0.131187	0.212524	1.2699	0	0	-0.282931	-0.556445	0.61938	0.768187	0.532826	0	0
0.59	0.550137	1.49477	-2.09759	0.970829	0.665065	0.962955	0.424684	-0.141931	-0.0468477	1.21234	-0.0446747	0	0	0.099924	0.123087	-0.132965	0.374938	0.210395	0	0	-0.0878066	-0.109327	-0.113023	-0.0925122	-0.093188	-0.125965	0.212632	1.2652	0	0	-0.274842	-0.557974	0.61914	0.770104	0.535168	0	0
0.6	0.515415	1.49621	-2.05269	0.972137	0.655226	0.963876	0.437987	-0.144365	-0.0593995	1.17958	-0.0300356	0	0	0.0807985	0.121374	-0.125948	0.361823	0.21466	0	0	-0.0907705	-0.104398	-0.122067	-0.0898627	-0.0941645	-0.121752	0.212668	1.25969	0	0	-0.26632	-0.559576	0.620147	0.771802	0.53696	0	0
0.61	0.486941	1.49587	-2.01458	0.973418	0.645428	0.964739	0.448912	-0.148601	-0.0713786	1.14432	-0.0168743	0	0	0.058228	0.121889	-0.114348	0.343674	0.216244	0	0	-0.0949208	-0.100685	-0.132624	-0.0941781	-0.101801	-0.0314711	0.227357	1.1507	0	0	-0.260868	-0.558136	0.608891	0.770837	0.569103	0	0
0.62	0.468358	1.49681	-1.98712	0.974547	0.635783	0.965192	0.460729	-0.152484	-0.0823629	1.10728	-0.00515943	0	0	0.0393996	0.121765	-0.104551	0.329319	0.218514	0	0	-0.0978003	-0.0972319	-0.140427	-0.091343	-0.102946	-0.0245553	0.22831	1.14061	0	0	-0.252704	-0.559781	0.608238	0.773095	0.574975	0	0
0.63	0.45097	1.49791	-1.96169	0.975554	0.626198	0.965401	0.471435	-0.155886	-0.0929601	1.06736	0.0051119	0	0	0.0212822	0.121627	-0.0943916	0.315396	0.21985	0	0	-0.100401	-0.0938481	-0.147526	-0.08867	-0.104092	-0.0157392	0.229135	1.13182	0	0	-0.244234	-0.560701	0.607797	0.773535	0.579613	0	0
0.64	0.431203	1.49918	-1.93486	0.976388	0.616638	0.965373	0.481031	-0.158356	-0.103337	1.02498	0.0144751	0	0	0.00394021	0.121127	-0.0842876	0.302298	0.221022	0	0	-0.102821	-0.0903804	-0.153535	-0.0857345	-0.104944	-0.00599854	0.228913	1.12336	0	0	-0.23523	-0.56125	0.60815	0.772524	0.583447	0	0
0.65	0.411401	1.50062	-1.90851	0.9771	0.607073	0.965124	0.489722	-0.160576	-0.114167	0.981299	0.0243915	0	0	-0.0125182	0.120431	-0.0739689	0.29034	0.222583	0	0	-0.105068	-0.0870128	-0.158738	-0.0827843	-0.105581	0.00363187	0.228232	1.11472	0	0	-0.225847	-0.561991	0.609275	0.771434	0.587032	0	0
0.66	0.392354	1.50206	-1.88324	0.977731	0.597521	0.96466	0.497871	-0.163032	-0.125618	0.93698	0.0336496	0	0	-0.028399	0.1197	-0.0632696	0.279326	0.22461	0	0	-0.107367	-0.0838019	-0.163449	-0.0798831	-0.106353	0.0116679	0.228908	1.10497	0	0	-0.216118	-0.562873	0.611724	0.770261	0.590827	0	0
0.67	0.375201	1.50399	-1.86114	0.978171	0.587963	0.963947	0.506061	-0.16467	-0.136108	0.891735	0.0422293	0	0	-0.0425118	0.118546	-0.0546605	0.270925	0.228348	0	0	-0.108923	-0.0808233	-0.16717	-0.0769232	-0.107318	0.0193271	0.230449	1.09476	0	0	-0.206603	-0.563497	0.614666	0.768191	0.593332	0	0
0.68	0.335419	1.50288	-1.8176	0.978534	0.578275	0.963425	0.508841	-0.165311	-0.147753	0.844159	0.0509728	0	0	-0.0627662	0.117216	-0.0428523	0.257456	0.230701	0	0	-0.114457	-0.0768175	-0.168486	-0.0679658	-0.102949	-0.0371071	0.219698	1.1635	0	0	-0.194006	-0.562108	0.617996	0.760626	0.610234	0	0
0.69	0.302187	1.50294	-1.78187	0.978648	0.568527	0.962602	0.51238	-0.164752	-0.158374	0.795854	0.0594706	0	0	-0.0801437	0.115235	-0.034844	0.247457	0.235449	0	0	-0.117812	-0.0733205	-0.169977	-0.0644562	-0.103651	-0.0299062	0.219578	1.15841	0	0	-0.183328	-0.561662	0.622962	0.755621	0.615964	0	0
0.7	0.272233	1.50275	-1.75009	0.978648	0.558715	0.961671	0.51484	-0.163805	-0.16936	0.746588	0.0672095	0	0	-0.0975006	0.113211	-0.0280014	0.238072	0.240672	0	0	-0.121323	-0.070154	-0.1708	-0.0612872	-0.104335	-0.0225397	0.22012	1.15381	0	0	-0.172904	-0.561327	0.627983	0.750839	0.621026	0	0
0.71	0.247581	1.50244	-1.72372	0.978596	0.548846	0.960619	0.516746	-0.163037	-0.181132	0.69779	0.0747679	0	0	-0.114445	0.111184	-0.0221736	0.229747	0.246815	0	0	-0.124836	-0.0673556	-0.171398	-0.0585816	-0.104896	-0.0151048	0.221362	1.14954	0	0	-0.162448	-0.560983	0.633348	0.74605	0.625636	0	0
0.72	0.227187	1.50233	-1.70215	0.97842	0.538874	0.959424	0.518291	-0.161754	-0.192785	0.649307	0.0829956	0	0	-0.13066	0.108885	-0.018631	0.222476	0.253732	0	0	-0.127772	-0.0649179	-0.171549	-0.0567036	-0.105066	-0.00710717	0.223104	1.14579	0	0	-0.152528	-0.560969	0.639259	0.742501	0.631034	0	0
0.73	0.216138	1.50314	-1.69054	0.978098	0.528752	0.957993	0.52064	-0.160131	-0.203936	0.60183	0.0919327	0	0	-0.145092	0.106682	-0.0175803	0.216776	0.261331	0	0	-0.129076	-0.0632748	-0.171706	-0.0550132	-0.104616	8.79448e-05	0.224892	1.14058	0	0	-0.144669	-0.561606	0.643814	0.74155	0.636478	0	0
0.74	0.198752	1.50349	-1.6724	0.977747	0.518467	0.956511	0.521156	-0.157833	-0.216663	0.554003	0.100302	0	0	-0.159933	0.103806	-0.0172677	0.211571	0.269704	0	0	-0.131279	-0.0610068	-0.170022	-0.0454869	-0.096281	-0.0904385	0.210744	1.24853	0	0	-0.133929	-0.56354	0.656578	0.741775	0.627479	0	0
0.75	0.174653	1.50319	-1.64861	0.977293	0.507919	0.955	0.519964	-0.154059	-0.229086	0.506128	0.107945	0	0	-0.176146	0.100546	-0.0179244	0.205611	0.277766	0	0	-0.132502	-0.0582695	-0.171811	-0.0530282	-0.104751	0.0266371	0.231429	1.10794	0	0	-0.130612	-0.561499	0.651127	0.73892	0.652239	0	0
0.76	0.147028	1.50222	-1.62179	0.976714	0.497151	0.953467	0.51709	-0.149146	-0.241176	0.458747	0.114886	0	0	-0.193669	0.0971091	-0.0181658	0.198978	0.284889	0	0	-0.135155	-0.0552076	-0.170177	-0.0474655	-0.0999875	-0.0198535	0.22453	1.16722	0	0	-0.125059	-0.560102	0.647858	0.736933	0.681158	0	0
0.77	0.119857	1.50174	-1.59514	0.976068	0.486256	0.951771	0.5143	-0.143811	-0.253187	0.412939	0.121135	0	0	-0.21045	0.0935752	-0.0181394	0.193036	0.292293	0	0	-0.1365	-0.0522565	-0.170161	-0.0461125	-0.100307	-0.00466595	0.225039	1.15867	0	0	-0.121142	-0.560266	0.648182	0.738102	0.694273	0	0
0.78	0.0907242	1.50171	-1.56721	0.975276	0.475154	0.949957	0.511449	-0.137352	-0.264243	0.36846	0.127021	0	0	-0.227181	0.0897764	-0.0188896	0.186923	0.299619	0	0	-0.136952	-0.0492274	-0.169389	-0.0449194	-0.100748	0.00938311	0.225102	1.14971	0	0	-0.117541	-0.560508	0.649338	0.739732	0.705812	0	0
0.79	0.0595895	1.50198	-1.53769	0.974385	0.46384	0.948049	0.508275	-0.129846	-0.273908	0.325176	0.132628	0	0	-0.244018	0.0858768	-0.0202085	0.180215	0.30632	0	0	-0.136677	-0.0461168	-0.168261	-0.0440988	-0.101309	0.0207445	0.226275	1.13841	0	0	-0.114557	-0.56066	0.650456	0.741023	0.715408	0	0
0.8	0.0187924	1.50198	-1.49886	0.973377	0.452297	0.946132	0.503241	-0.120293	-0.279892	0.281388	0.13697	0	0	-0.261455	0.0812267	-0.0224621	0.173099	0.312563	0	0	-0.136149	-0.0424501	-0.166791	-0.0437841	-0.101898	0.0326074	0.22748	1.12646	0	0	-0.111881	-0.561007	0.652756	0.742801	0.724512	0	0
0.81	-0.0138761	1.50319	-1.46725	0.972381	0.440606	0.944078	0.499298	-0.111473	-0.283865	0.240737	0.141211	0	0	-0.276219	0.0769581	-0.0252428	0.168981	0.319027	0	0	-0.133733	-0.039713	-0.166638	-0.0437407	-0.101815	0.041975	0.228275	1.11747	0	0	-0.110614	-0.562053	0.654809	0.746028	0.730226	0	0
0.82	-0.0331644	1.50581	-1.44776	0.971457	0.428809	0.941895	0.497296	-0.104612	-0.287441	0.205332	0.145666	0	0	-0.287963	0.073459	-0.0272644	0.168093	0.325464	0	0	-0.129491	-0.0382908	-0.168601	-0.0434774	-0.101165	0.049807	0.229277	1.10875	0	0	-0.111043	-0.563339	0.655243	0.748866	0.732936	0	0
0.83	-0.0757105	1.50674	-1.40396	0.970486	0.416752	0.939923	0.489815	-0.0948693	-0.284105	0.166058	0.143579	0	0	-0.300348	0.0674426	-0.030454	0.169432	0.332695	0	0	-0.127588	-0.0350174	-0.16981	-0.0330795	-0.0902444	-0.0666886	0.208989	1.25532	0	0	-0.108909	-0.564429	0.658947	0.74992	0.739575	0	0
0.84	-0.0883445	1.51026	-1.38875	0.969632	0.40456	0.937743	0.489505	-0.0904538	-0.285966	0.142155	0.145657	0	0	-0.308607	0.0635546	-0.0315236	0.173881	0.338766	0	0	-0.122185	-0.0344804	-0.175387	-0.0326429	-0.0885046	-0.0622702	0.208424	1.25495	0	0	-0.110453	-0.565317	0.659148	0.750691	0.741467	0	0
0.85	-0.0979102	1.51332	-1.37564	0.968858	0.39217	0.93568	0.491534	-0.0880826	-0.290384	0.130586	0.148753	0	0	-0.316057	0.0592983	-0.0324266	0.18122	0.344344	0	0	-0.117032	-0.0340162	-0.182727	-0.0363716	-0.0905005	-0.00985624	0.216651	1.19572	0	0	-0.11336	-0.566123	0.658155	0.751086	0.741383	0	0
0.86	-0.118495	1.51534	-1.3504	0.968172	0.379559	0.933803	0.49515	-0.0868221	-0.297526	0.131213	0.15083	0	0	-0.323005	0.0536075	-0.0334498	0.19174	0.349822	0	0	-0.113197	-0.0323362	-0.18981	-0.035767	-0.0883929	-0.0117953	0.215526	1.20136	0	0	-0.114422	-0.566777	0.660319	0.74999	0.741461	0	0
0.87	-0.144022	1.51625	-1.31925	0.9676	0.366717	0.93211	0.500385	-0.0871481	-0.308169	0.144638	0.15219	0	0	-0.329672	0.0468257	-0.0342383	0.20514	0.354609	0	0	-0.110316	-0.0298629	-0.197286	-0.0354914	-0.0866199	-0.0128495	0.213933	1.20724	0	0	-0.114853	-0.567491	0.664295	0.749206	0.741306	0	0
0.88	-0.173838	1.51636	-1.28289	0.967141	0.353577	0.930566	0.5053	-0.0883994	-0.319761	0.165779	0.152113	0	0	-0.335986	0.0391095	-0.03446	0.220919	0.358489	0	0	-0.107815	-0.0266136	-0.205413	-0.0358393	-0.085415	-0.0141676	0.212779	1.21253	0	0	-0.115804	-0.568096	0.668238	0.748724	0.740343	0	0
0.89	-0.210492	1.51596	-1.2387	0.966806	0.340048	0.929162	0.50857	-0.0897302	-0.33022	0.190604	0.151812	0	0	-0.341801	0.0304187	-0.0341143	0.238588	0.361029	0	0	-0.10483	-0.02245	-0.214626	-0.0369879	-0.0845617	-0.0148654	0.211173	1.21822	0	0	-0.11755	-0.568036	0.672335	0.746734	0.737931	0	0
0.9	-0.262097	1.5169	-1.17768	0.966629	0.326125	0.927726	0.511954	-0.0917579	-0.342728	0.218379	0.1547	0	0	-0.343737	0.0204519	-0.0337543	0.260883	0.363684	0	0	-0.0982215	-0.0180083	-0.227407	-0.0452186	-0.0909504	0.0671854	0.222669	1.12774	0	0	-0.121922	-0.568249	0.678547	0.745121	0.724923	0	0
0.91	-0.302633	1.51628	-1.12783	0.96647	0.311757	0.926595	0.508709	-0.0914347	-0.347941	0.240041	0.156631	0	0	-0.348972	0.0108695	-0.0304529	0.279507	0.360476	0	0	-0.0932817	-0.0133086	-0.238235	-0.0477443	-0.0904318	0.0600976	0.221754	1.13475	0	0	-0.125966	-0.567034	0.680481	0.742052	0.72384	0	0
0.92	-0.343027	1.51742	-1.07617	0.966459	0.29699	0.925384	0.505344	-0.0924901	-0.354354	0.263291	0.162699	0	0	-0.350691	0.00104666	-0.0265316	0.301528	0.356217	0	0	-0.0854485	-0.00939807	-0.25093	-0.0516452	-0.0901409	0.0529815	0.221273	1.14124	0	0	-0.131537	-0.56588	0.682295	0.739061	0.722452	0	0
